<svg width="20" height="20" viewBox="0 0 20 20" fill="none" xmlns="http://www.w3.org/2000/svg">
<path d="M14.6583 1.03943C12.6737 1.03943 10.9202 2.12617 10 3.76367C9.07979 2.12617 7.32631 1.03943 5.3417 1.03943C2.39627 1.03943 0 3.4357 0 6.38113C0 8.73948 1.63729 11.5642 4.86639 14.7769C7.21432 17.113 9.52464 18.77 9.62183 18.8394C9.73494 18.9201 9.86749 18.9605 10 18.9605C10.1325 18.9605 10.2651 18.9202 10.3781 18.8394C10.4754 18.77 12.7857 17.113 15.1336 14.7769C18.3627 11.5642 20 8.73948 20 6.38113C20 3.4357 17.6037 1.03943 14.6583 1.03943ZM14.2277 13.8421C12.499 15.5638 10.7493 16.9348 10 17.5C9.25073 16.9347 7.50099 15.5638 5.77228 13.8421C2.84755 10.9294 1.30164 8.34938 1.30164 6.38113C1.30164 4.15342 3.11399 2.34107 5.3417 2.34107C7.39304 2.34107 9.11775 3.87565 9.35352 5.91063C9.39153 6.23886 9.66956 6.48652 10 6.48652C10.3304 6.48652 10.6084 6.23886 10.6465 5.91063C10.8823 3.87565 12.607 2.34107 14.6583 2.34107C16.886 2.34107 18.6984 4.15342 18.6984 6.38113C18.6984 8.34938 17.1525 10.9294 14.2277 13.8421Z" fill="currentColor"/>
</svg>
